Coordinates
version=1
nRows=20
nColumns=38
inDegrees=no

Units are S.I. units (second, meters, Newtons, ...)
If the header above contains a line with 'inDegrees', this indicates whether rotational values are in degrees (yes) or radians (no).

endheader
time	pelvis_tilt	pelvis_list	pelvis_rotation	pelvis_tx	pelvis_ty	pelvis_tz	hip_flexion_r	hip_adduction_r	hip_rotation_r	knee_angle_r	ankle_angle_r	subtalar_angle_r	mtp_angle_r	hip_flexion_l	hip_adduction_l	hip_rotation_l	knee_angle_l	ankle_angle_l	subtalar_angle_l	mtp_angle_l	lumbar_extension	lumbar_bending	lumbar_rotation	arm_flex_r	arm_add_r	arm_rot_r	elbow_flex_r	pro_sup_r	wrist_flex_r	wrist_dev_r	arm_flex_l	arm_add_l	arm_rot_l	elbow_flex_l	pro_sup_l	wrist_flex_l	wrist_dev_l
1.09	0.536093	1.42486	-2.0479	0.578791	0.328295	1.06198	-0.118716	-0.240365	-0.0886368	1.0159	-0.698132	0	0	0.0942207	-0.00177977	-0.307546	0.458515	-0.223683	0	0	-0.410974	-0.0670223	0.189204	0.239478	-0.462437	1.13957	0.53549	0.527237	0	0	0.198677	-0.271031	0.681488	0.481146	0.867474	0	0
1.1	0.502489	1.42048	-2.01311	0.582786	0.317949	1.06419	-0.102289	-0.237562	-0.0778594	1.04674	-0.698132	0	0	0.0718815	-0.000670867	-0.318246	0.454522	-0.218686	0	0	-0.419105	-0.0621679	0.187197	0.242582	-0.467148	1.14229	0.539908	0.525149	0	0	0.201731	-0.268585	0.684683	0.479498	0.866368	0	0
1.11	0.467315	1.41585	-1.97633	0.586641	0.307905	1.06647	-0.0862036	-0.232507	-0.0670601	1.07507	-0.698132	0	0	0.0498738	-0.00070898	-0.32633	0.449726	-0.215853	0	0	-0.427854	-0.0568546	0.184599	0.246556	-0.471875	1.14511	0.544639	0.523528	0	0	0.205232	-0.266555	0.68805	0.478078	0.865216	0	0
1.12	0.431757	1.4111	-1.93868	0.590315	0.298107	1.06882	-0.0706665	-0.225172	-0.0558357	1.1007	-0.698132	0	0	0.028894	-0.0021817	-0.33187	0.444492	-0.215416	0	0	-0.437049	-0.0512293	0.181649	0.251137	-0.476516	1.14774	0.549599	0.521809	0	0	0.209381	-0.265157	0.692232	0.476925	0.86465	0	0
1.13	0.399295	1.40726	-1.90381	0.593785	0.28844	1.07108	-0.0540362	-0.216371	-0.0452629	1.1244	-0.698132	0	0	0.0101748	-0.00473742	-0.334843	0.438801	-0.217147	0	0	-0.445435	-0.0454801	0.178517	0.255919	-0.481107	1.15007	0.5551	0.519901	0	0	0.213874	-0.264314	0.696882	0.475966	0.864308	0	0
1.14	0.371617	1.40425	-1.87367	0.59704	0.2789	1.07321	-0.0355984	-0.206646	-0.0348419	1.14664	-0.698132	0	0	-0.00637724	-0.0078137	-0.336615	0.433766	-0.220434	0	0	-0.452681	-0.0401006	0.175381	0.260801	-0.485391	1.15201	0.560647	0.518081	0	0	0.218257	-0.263885	0.700738	0.475772	0.862572	0	0
1.15	0.347612	1.40201	-1.8469	0.600214	0.269376	1.07522	-0.0159682	-0.196244	-0.0239872	1.16661	-0.68733	0	0	-0.0216651	-0.0107253	-0.338457	0.429355	-0.223724	0	0	-0.458779	-0.0348147	0.171945	0.265516	-0.489234	1.15339	0.565752	0.516346	0	0	0.222229	-0.263575	0.703694	0.476088	0.859122	0	0
1.16	0.32779	1.40066	-1.82427	0.603346	0.259852	1.07705	0.00488114	-0.185247	-0.0118106	1.18445	-0.651932	0	0	-0.0361861	-0.0128431	-0.341609	0.425446	-0.226154	0	0	-0.463708	-0.0296943	0.168356	0.269964	-0.493287	1.1545	0.571275	0.514585	0	0	0.225923	-0.263524	0.707285	0.476829	0.852965	0	0
1.17	0.310189	1.40008	-1.80346	0.606569	0.250298	1.07873	0.0260005	-0.174167	-0.00054846	1.19686	-0.621178	0	0	-0.0500521	-0.0145149	-0.346562	0.422946	-0.226085	0	0	-0.46716	-0.0244679	0.164522	0.274249	-0.495853	1.15612	0.573781	0.514021	0	0	0.229488	-0.263004	0.710964	0.476447	0.848362	0	0
1.18	0.294187	1.40013	-1.78395	0.609846	0.240667	1.0802	0.0468635	-0.163555	0.00817913	1.20471	-0.588494	0	0	-0.064083	-0.0156599	-0.351808	0.419567	-0.224944	0	0	-0.469492	-0.0190255	0.160552	0.278212	-0.497941	1.15809	0.57516	0.513745	0	0	0.232725	-0.262028	0.714783	0.475232	0.84446	0	0
1.19	0.278537	1.40047	-1.76491	0.613087	0.230983	1.08157	0.067059	-0.152817	0.0158856	1.20869	-0.550452	0	0	-0.0785136	-0.0162498	-0.355929	0.41415	-0.22365	0	0	-0.471472	-0.0136535	0.156797	0.282106	-0.499583	1.16043	0.575481	0.513949	0	0	0.235598	-0.260432	0.717647	0.473492	0.839601	0	0
1.2	0.262864	1.40091	-1.74567	0.616309	0.221301	1.08286	0.0866256	-0.142274	0.021865	1.20858	-0.517026	0	0	-0.0927875	-0.0169166	-0.359071	0.407979	-0.222898	0	0	-0.473414	-0.00831262	0.152936	0.28602	-0.500626	1.16252	0.574723	0.514277	0	0	0.23846	-0.258731	0.720262	0.471483	0.836256	0	0
1.21	0.248946	1.40208	-1.72823	0.619457	0.211636	1.08397	0.106636	-0.132168	0.0267247	1.20513	-0.483111	0	0	-0.105695	-0.0176953	-0.361467	0.401696	-0.223099	0	0	-0.474598	-0.00313834	0.149218	0.289764	-0.501617	1.16427	0.573835	0.513984	0	0	0.241227	-0.256705	0.722235	0.469288	0.83306	0	0
1.22	0.237606	1.40421	-1.71353	0.622498	0.20201	1.08482	0.127487	-0.123013	0.0305434	1.19808	-0.45369	0	0	-0.11665	-0.0185195	-0.363319	0.395901	-0.224302	0	0	-0.474597	0.00161353	0.145728	0.293333	-0.502514	1.16611	0.57284	0.513679	0	0	0.243814	-0.254433	0.723534	0.467039	0.829822	0	0
1.23	0.227788	1.40653	-1.70083	0.625407	0.192397	1.08549	0.148352	-0.114937	0.0331994	1.18735	-0.433467	0	0	-0.126784	-0.0192903	-0.364771	0.390882	-0.225551	0	0	-0.474077	0.0056879	0.142846	0.296655	-0.503362	1.16794	0.571756	0.513536	0	0	0.246306	-0.252231	0.724692	0.464929	0.827726	0	0
1.24	0.216766	1.40928	-1.68736	0.628221	0.182831	1.08596	0.169296	-0.107252	0.0356725	1.17423	-0.416059	0	0	-0.136093	-0.0203109	-0.365979	0.38641	-0.226427	0	0	-0.47312	0.00983279	0.14031	0.299988	-0.50447	1.16976	0.571009	0.513459	0	0	0.248627	-0.249972	0.72562	0.462855	0.826304	0	0
1.25	0.204988	1.41226	-1.67318	0.630962	0.173313	1.08622	0.190025	-0.0999096	0.0375706	1.15864	-0.401702	0	0	-0.144774	-0.0214624	-0.366993	0.382694	-0.22668	0	0	-0.47192	0.0140081	0.137939	0.3032	-0.5058	1.17142	0.570568	0.513395	0	0	0.25086	-0.247766	0.726378	0.460951	0.825422	0	0
1.26	0.194102	1.41549	-1.6601	0.633599	0.163859	1.08627	0.21047	-0.0931802	0.0393157	1.14103	-0.38763	0	0	-0.152902	-0.0223883	-0.367873	0.379634	-0.226216	0	0	-0.470501	0.0178098	0.135882	0.306409	-0.507294	1.1732	0.570287	0.513448	0	0	0.253056	-0.245423	0.72668	0.458926	0.824544	0	0
1.27	0.185326	1.41882	-1.64922	0.636166	0.154442	1.0861	0.230009	-0.0875993	0.0406107	1.12165	-0.373106	0	0	-0.160681	-0.0228871	-0.368396	0.377182	-0.225005	0	0	-0.468921	0.0211033	0.133908	0.309501	-0.508894	1.17502	0.570232	0.513556	0	0	0.255231	-0.243113	0.726644	0.456923	0.823792	0	0
1.28	0.179046	1.42201	-1.64092	0.638636	0.145083	1.08574	0.248564	-0.0830851	0.0421805	1.10086	-0.357724	0	0	-0.16845	-0.0228498	-0.368215	0.374948	-0.223051	0	0	-0.467419	0.0238334	0.131995	0.312521	-0.510552	1.1767	0.57049	0.513454	0	0	0.257419	-0.240907	0.726384	0.455113	0.823173	0	0
